<svg width="14" height="14" viewBox="0 0 14 14" fill="none" xmlns="http://www.w3.org/2000/svg">
<path fill-rule="evenodd" clip-rule="evenodd" d="M10.433 14C10.7598 13.9986 11.0727 13.8638 11.3029 13.6252C11.5332 13.3865 11.6618 13.0636 11.6606 12.7274C11.6613 12.5609 11.63 12.3959 11.5687 12.2418C11.5073 12.0877 11.4171 11.9475 11.3031 11.8293C11.1891 11.7111 11.0536 11.6172 10.9043 11.5528C10.755 11.4885 10.5948 11.455 10.433 11.4543C10.2711 11.455 10.1109 11.4885 9.96165 11.5528C9.81235 11.6172 9.67684 11.7111 9.56284 11.8293C9.44885 11.9475 9.3586 12.0877 9.29726 12.2418C9.23593 12.3959 9.20469 12.5609 9.20535 12.7274C9.20414 13.0636 9.33279 13.3865 9.563 13.6252C9.79321 13.8638 10.1061 13.9986 10.433 14ZM5.52339 14C5.85014 13.9985 6.16295 13.8636 6.39307 13.625C6.62318 13.3864 6.75176 13.0635 6.75056 12.7274C6.75189 12.3912 6.62335 12.0682 6.39323 11.8295C6.1631 11.5908 5.85022 11.4558 5.52339 11.4543C5.36152 11.455 5.20137 11.4885 5.05207 11.5528C4.90277 11.6172 4.76726 11.7111 4.65326 11.8293C4.53927 11.9475 4.44902 12.0877 4.38768 12.2418C4.32634 12.3959 4.29511 12.5609 4.29577 12.7274C4.29456 13.0636 4.42321 13.3865 4.65342 13.6252C4.88363 13.8638 5.19656 13.9986 5.52339 14ZM13.9552 3.7772C13.8545 3.61247 13.8772 3.54387 13.4721 3.47247C11.2355 3.0786 3.90516 1.78313 3.44333 1.6464C3.17022 1.56613 3.13348 1.47467 2.93205 1.008C2.49607 0 1.62549 0 1.62549 0H0.499033C0.499033 0 0 0 0 0.640733C0 1.28147 0.515819 1.23433 0.515819 1.23433L1.18588 1.27727C1.18588 1.27727 1.57695 1.35333 1.89179 1.6464C2.20663 1.9404 2.25654 2.58113 2.25654 2.58113L3.78086 10.5005H12.479L13.9552 4.26253C13.9552 4.26253 14.056 3.94193 13.9552 3.7772Z" fill="#002B64"/>
</svg>
