<svg width="14" height="17" viewBox="0 0 14 17" fill="none" xmlns="http://www.w3.org/2000/svg">
<path d="M13.4414 4.31269C12.9238 3.07448 12.0658 2.01113 10.9687 1.24787C9.87143 0.484617 8.58064 0.053215 7.24814 0.00463722C5.9158 -0.0440855 4.59744 0.291971 3.44829 0.973294C2.29914 1.6545 1.36719 2.65241 0.762038 3.84967C0.156887 5.04682 -0.09608 6.39341 0.0327448 7.7305C0.16172 9.06775 0.667168 10.3401 1.48963 11.3976L1.53837 11.4561L6.22169 16.6513C6.42122 16.8733 6.70467 17 7.00193 17C7.29908 17 7.58249 16.8733 7.78203 16.6513L12.4654 11.4561L12.5141 11.3976C13.2822 10.4077 13.774 9.22902 13.9387 7.98367C14.1033 6.73807 13.9349 5.47073 13.4508 4.31286L13.4414 4.31269ZM6.99885 9.82514C6.30328 9.82514 5.6362 9.54676 5.14432 9.0511C4.65244 8.55544 4.37622 7.88317 4.37622 7.18222C4.37622 6.48126 4.65247 5.80903 5.14432 5.31334C5.63618 4.81765 6.30328 4.53916 6.99885 4.53916C7.69442 4.53916 8.36149 4.81767 8.85338 5.31334C9.34526 5.809 9.62147 6.48126 9.62147 7.18222C9.62147 7.88317 9.34523 8.55541 8.85338 9.0511C8.36152 9.54679 7.69442 9.82514 6.99885 9.82514Z" fill="#CBE5FF"/>
</svg>
