<svg width="14" height="17" viewBox="0 0 14 17" fill="none" xmlns="http://www.w3.org/2000/svg">
<path fill-rule="evenodd" clip-rule="evenodd" d="M5.17594 9.71123C4.0269 8.07047 2.94428 6.92386 4.22257 5.71598L5.05087 4.82123C5.33718 4.5124 5.47756 4.18977 5.33667 3.89463L3.80059 0.683235C3.65955 0.388104 3.21942 0.470014 2.83212 0.634856L0.612749 1.57885C-1.16355 2.82274 1.31514 8.7011 3.06006 11.1928C4.80474 13.6848 9.48049 18.0244 11.2573 16.7804L12.9034 15.0179C13.1907 14.7104 13.4183 14.3249 13.1892 14.0913L10.6966 11.5495C10.4675 11.3161 10.1162 11.338 9.72811 11.5014L8.60378 11.9734C7.03164 12.7615 6.32452 11.352 5.17569 9.71115L5.17594 9.71123Z" fill="#CBE5FF"/>
</svg>
