<svg width="20" height="20" viewBox="0 0 20 20" fill="none" xmlns="http://www.w3.org/2000/svg">
<path fill-rule="evenodd" clip-rule="evenodd" d="M13.0663 8.16641C13.0663 10.8725 10.8725 13.0663 8.16641 13.0663C5.4603 13.0663 3.26656 10.8725 3.26656 8.16641C3.26656 5.4603 5.4603 3.26656 8.16641 3.26656C10.8725 3.26656 13.0663 5.4603 13.0663 8.16641ZM12.6696 14.9801C11.3787 15.835 9.8307 16.3328 8.16641 16.3328C3.65623 16.3328 0 12.6766 0 8.16641C0 3.65623 3.65623 0 8.16641 0C12.6766 0 16.3328 3.65623 16.3328 8.16641C16.3328 9.83102 15.8348 11.3793 14.9796 12.6704L19.5223 17.213C20.1601 17.8509 20.1601 18.885 19.5223 19.5229C18.8844 20.1607 17.8503 20.1607 17.2124 19.5229L12.6696 14.9801Z" fill="white"/>
</svg>
